<?xml version="1.0" encoding="UTF-8" standalone="no"?>
<!-- Created with Inkscape (http://www.inkscape.org/) -->

<svg
   version="1.1"
   id="svg3018"
   xml:space="preserve"
   width="682.66669"
   height="682.66669"
   viewBox="0 0 682.66669 682.66669"
   xmlns="http://www.w3.org/2000/svg"
   xmlns:svg="http://www.w3.org/2000/svg"><defs
     id="defs3022"><clipPath
       clipPathUnits="userSpaceOnUse"
       id="clipPath3032"><path
         d="M 0,512 H 512 V 0 H 0 Z"
         id="path3030" /></clipPath></defs><g
     id="g3024"
     transform="matrix(1.3333333,0,0,-1.3333333,0,682.66667)"><g
       id="g3026"><g
         id="g3028"
         clip-path="url(#clipPath3032)"><g
           id="g3034"
           transform="translate(504.5,47.7715)"><path
             d="m 0,0 c 0,-7.73 -6.27,-14 -14,-14 h -469 c -3.86,0 -7.36,1.57 -9.9,4.1 -2.53,2.53 -4.1,6.03 -4.1,9.9 0,7.74 6.27,14.01 14,14.01 h 469 c 3.86,0 7.36,-1.57 9.9,-4.1 C -1.57,7.37 0,3.87 0,0"
             style="fill:#d77d41;fill-opacity:1;fill-rule:nonzero;stroke:none"
             id="path3036" /></g><g
           id="g3038"
           transform="translate(500.3999,57.6816)"><path
             d="m 0,0 c 2.53,-2.54 4.1,-6.04 4.1,-9.91 0,-7.73 -6.27,-14 -14,-14 h -27 c 7.73,0 14,6.27 14,14 0,3.87 -1.57,7.37 -4.1,9.91 -2.54,2.53 -6.04,4.1 -9.9,4.1 h 27 C -6.04,4.1 -2.54,2.53 0,0"
             style="fill:#b5612a;fill-opacity:1;fill-rule:nonzero;stroke:none"
             id="path3040" /></g><g
           id="g3042"
           transform="translate(390.6675,378.6914)"><path
             d="m 0,0 -15.77,20.09 4.73,18.34 -16.26,56.58 c -0.79,2.75 -3.65,4.33 -6.4,3.54 L -60.18,90.94 -137,68.87 c -2.75,-0.78 -4.34,-3.65 -3.55,-6.4 l 16.25,-56.57 15.25,-18.29 -4.2,-20.15 65.274,-227.18 62.966,7.76 50.282,24.776 z"
             style="fill:#d4e16c;fill-opacity:1;fill-rule:nonzero;stroke:none"
             id="path3044" /></g><g
           id="g3046"
           transform="translate(455.9399,151.5078)"><path
             d="m 0,0 -21.034,-6.043 -91.779,317.187 c -1.56,5.409 -7.219,8.54 -12.64,6.98 l 26.48,7.609 c 2.75,0.79 5.611,-0.79 6.401,-3.54 l 16.259,-56.58 -4.729,-18.34 15.77,-20.089 z"
             style="fill:#a4ce39;fill-opacity:1;fill-rule:nonzero;stroke:none"
             id="path3048" /></g><g
           id="g3050"
           transform="translate(390.6675,378.6914)"><path
             d="m 0,0 -21.46,-6.17 -91.79,-26.37 -11.05,38.44 91.72,26.34 21.54,6.19 z"
             style="fill:#fdeda5;fill-opacity:1;fill-rule:nonzero;stroke:none"
             id="path3052" /></g><g
           id="g3054"
           transform="translate(470.8174,99.731)"><path
             d="m 0,0 -14.877,51.777 -113.248,-32.537 9.775,-34.03 6.53,-22.72 108.27,31.1 C -0.8,-5.62 0.78,-2.75 0,0"
             style="fill:#56788b;fill-opacity:1;fill-rule:nonzero;stroke:none"
             id="path3056" /></g><g
           id="g3058"
           transform="translate(467.2676,93.3213)"><path
             d="m 0,0 -108.27,-31.1 -6.53,22.72 71.68,21.67 c 11.21,3.39 17.61,15.17 14.36,26.42 l -3.602,12.434 21.034,6.043 L 3.55,6.41 C 4.33,3.66 2.75,0.79 0,0"
             style="fill:#415e6f;fill-opacity:1;fill-rule:nonzero;stroke:none"
             id="path3060" /></g><g
           id="g3062"
           transform="translate(369.2075,372.521)"><path
             d="M 0,0 -11.12,38.41 10.42,44.6 21.46,6.17 Z"
             style="fill:#fbdf63;fill-opacity:1;fill-rule:nonzero;stroke:none"
             id="path3064" /></g><g
           id="g3066"
           transform="translate(255.2856,415.7534)"><path
             d="M 0,0 V -353.97 H -97.83 V 5.48 H -5.48 C -2.45,5.48 0,3.03 0,0"
             style="fill:#f9d11f;fill-opacity:1;fill-rule:nonzero;stroke:none"
             id="path3068" /></g><g
           id="g3070"
           transform="translate(255.2856,415.7534)"><path
             d="M 0,0 V -353.97 H -21 V 0 c 0,3.03 -2.45,5.48 -5.48,5.48 h 21 C -2.45,5.48 0,3.03 0,0"
             style="fill:#ffa402;fill-opacity:1;fill-rule:nonzero;stroke:none"
             id="path3072" /></g><path
           d="m 255.286,61.783 h -97.83 v 59.51 h 97.83 z"
           style="fill:#56788b;fill-opacity:1;fill-rule:nonzero;stroke:none"
           id="path3074" /><g
           id="g3076"
           transform="translate(234.2856,121.2935)"><path
             d="M 0,0 H 21 V -59.51 H -96.83 v 18.99 h 76.85 c 11.03,0 19.98,8.95 19.98,19.98 z"
             style="fill:#415e6f;fill-opacity:1;fill-rule:nonzero;stroke:none"
             id="path3078" /></g><path
           d="m 255.286,317.644 h -97.83 v 40 h 97.83 z"
           style="fill:#fdeda5;fill-opacity:1;fill-rule:nonzero;stroke:none"
           id="path3080" /><path
           d="m 255.286,317.644 h -21 v 40 h 21 z"
           style="fill:#fbdf63;fill-opacity:1;fill-rule:nonzero;stroke:none"
           id="path3082" /><g
           id="g3084"
           transform="translate(157.4565,455.9932)"><path
             d="m 0,0 v -58.35 l -10,-20 10,-20 V -344.7 l -117.83,10 v 236.35 l 10,20 -10,20 V 0 c 0,2.89 2.34,5.24 5.23,5.24 H -5.24 C -2.35,5.24 0,2.89 0,0"
             style="fill:#ff6b81;fill-opacity:1;fill-rule:nonzero;stroke:none"
             id="path3086" /></g><g
           id="g3088"
           transform="translate(157.4565,455.9932)"><path
             d="m 0,0 v -58.35 l -10,-20 10,-20 v -295.86 h -117.83 v 18.99 h 76.85 c 11.03,0 19.98,8.95 19.98,19.98 L -21,0 c 0,2.89 -2.35,5.24 -5.24,5.24 h 21 C -2.35,5.24 0,2.89 0,0"
             style="fill:#ed2061;fill-opacity:1;fill-rule:nonzero;stroke:none"
             id="path3090" /></g><path
           d="M 157.457,61.783 H 39.627 v 59.51 h 117.83 z"
           style="fill:#56788b;fill-opacity:1;fill-rule:nonzero;stroke:none"
           id="path3092" /><path
           d="M 157.457,357.644 H 39.627 v 40 h 117.83 z"
           style="fill:#fdeda5;fill-opacity:1;fill-rule:nonzero;stroke:none"
           id="path3094" /><path
           d="m 157.457,357.644 h -21 v 40 h 21 z"
           style="fill:#fbdf63;fill-opacity:1;fill-rule:nonzero;stroke:none"
           id="path3096" /><g
           id="g3098"
           transform="translate(136.4565,121.2935)"><path
             d="M 0,0 H 21 V -59.51 H -96.83 v 18.99 h 76.85 c 11.03,0 19.98,8.95 19.98,19.98 z"
             style="fill:#415e6f;fill-opacity:1;fill-rule:nonzero;stroke:none"
             id="path3100" /></g><g
           id="g3102"
           transform="translate(101.042,33.7676)"><path
             d="m 0,0 h 389.458 c 7.732,0 14,6.27 14,14.004 v 0 c 0,7.734 -6.268,14.004 -14,14.004 h -469 c -7.732,0 -14,-6.27 -14,-14.004 v 0 C -93.542,6.27 -87.274,0 -79.542,0 h 44.456"
             style="fill:none;stroke:#000000;stroke-width:15;stroke-linecap:round;stroke-linejoin:miter;stroke-miterlimit:10;stroke-dasharray:none;stroke-opacity:1"
             id="path3104" /></g><g
           id="g3106"
           transform="translate(157.4565,200.709)"><path
             d="M 0,0 V 260.518 H -117.829 V -138.933 H 0 v 104.464"
             style="fill:none;stroke:#000000;stroke-width:15;stroke-linecap:round;stroke-linejoin:round;stroke-miterlimit:10;stroke-dasharray:none;stroke-opacity:1"
             id="path3108" /></g><path
           d="m 39.627,357.644 h 117.829 v 40 H 39.627 Z"
           style="fill:none;stroke:#000000;stroke-width:15;stroke-linecap:round;stroke-linejoin:round;stroke-miterlimit:10;stroke-dasharray:none;stroke-opacity:1"
           id="path3110" /><g
           id="g3112"
           transform="translate(157.4565,121.2852)"><path
             d="M 0,0 H -117.829"
             style="fill:none;stroke:#000000;stroke-width:15;stroke-linecap:round;stroke-linejoin:round;stroke-miterlimit:10;stroke-dasharray:none;stroke-opacity:1"
             id="path3114" /></g><g
           id="g3116"
           transform="translate(81.187,312.5288)"><path
             d="M 0,0 V -146.312"
             style="fill:none;stroke:#000000;stroke-width:15;stroke-linecap:round;stroke-linejoin:round;stroke-miterlimit:10;stroke-dasharray:none;stroke-opacity:1"
             id="path3118" /></g><g
           id="g3120"
           transform="translate(115.8975,289.373)"><path
             d="M 0,0 V -100"
             style="fill:none;stroke:#000000;stroke-width:15;stroke-linecap:round;stroke-linejoin:round;stroke-miterlimit:10;stroke-dasharray:none;stroke-opacity:1"
             id="path3122" /></g><g
           id="g3124"
           transform="translate(398.0723,352.9229)"><path
             d="M 0,0 -36.002,125.31 -149.25,92.772 -38.948,-291.147 74.3,-258.61 9.175,-31.934"
             style="fill:none;stroke:#000000;stroke-width:15;stroke-linecap:round;stroke-linejoin:round;stroke-miterlimit:10;stroke-dasharray:none;stroke-opacity:1"
             id="path3126" /></g><g
           id="g3128"
           transform="translate(277.4253,346.1396)"><path
             d="M 0,0 113.248,32.537 102.202,70.981 -11.045,38.445 Z"
             style="fill:none;stroke:#000000;stroke-width:15;stroke-linecap:round;stroke-linejoin:round;stroke-miterlimit:10;stroke-dasharray:none;stroke-opacity:1"
             id="path3130" /></g><g
           id="g3132"
           transform="translate(455.9399,151.5078)"><path
             d="M 0,0 -113.248,-32.537"
             style="fill:none;stroke:#000000;stroke-width:15;stroke-linecap:round;stroke-linejoin:round;stroke-miterlimit:10;stroke-dasharray:none;stroke-opacity:1"
             id="path3134" /></g><g
           id="g3136"
           transform="translate(329.8267,314.2549)"><path
             d="M 0,0 40.401,-140.622"
             style="fill:none;stroke:#000000;stroke-width:15;stroke-linecap:round;stroke-linejoin:round;stroke-miterlimit:10;stroke-dasharray:none;stroke-opacity:1"
             id="path3138" /></g><g
           id="g3140"
           transform="translate(369.5811,301.5845)"><path
             d="M 0,0 27.614,-96.112"
             style="fill:none;stroke:#000000;stroke-width:15;stroke-linecap:round;stroke-linejoin:round;stroke-miterlimit:10;stroke-dasharray:none;stroke-opacity:1"
             id="path3142" /></g><g
           id="g3144"
           transform="translate(255.2856,263.751)"><path
             d="M 0,0 V 157.476 H -97.829"
             style="fill:none;stroke:#000000;stroke-width:15;stroke-linecap:round;stroke-linejoin:round;stroke-miterlimit:10;stroke-dasharray:none;stroke-opacity:1"
             id="path3146" /></g><g
           id="g3148"
           transform="translate(157.4565,61.7759)"><path
             d="M 0,0 H 97.829 V 167.752"
             style="fill:none;stroke:#000000;stroke-width:15;stroke-linecap:round;stroke-linejoin:round;stroke-miterlimit:10;stroke-dasharray:none;stroke-opacity:1"
             id="path3150" /></g><path
           d="m 157.457,317.644 h 97.829 v 40 h -97.829 z"
           style="fill:none;stroke:#000000;stroke-width:15;stroke-linecap:round;stroke-linejoin:round;stroke-miterlimit:10;stroke-dasharray:none;stroke-opacity:1"
           id="path3152" /><g
           id="g3154"
           transform="translate(255.2856,121.2852)"><path
             d="M 0,0 H -97.829"
             style="fill:none;stroke:#000000;stroke-width:15;stroke-linecap:round;stroke-linejoin:round;stroke-miterlimit:10;stroke-dasharray:none;stroke-opacity:1"
             id="path3156" /></g><g
           id="g3158"
           transform="translate(206.7329,272.5288)"><path
             d="M 0,0 V -106.312"
             style="fill:none;stroke:#000000;stroke-width:15;stroke-linecap:round;stroke-linejoin:round;stroke-miterlimit:10;stroke-dasharray:none;stroke-opacity:1"
             id="path3160" /></g></g></g></g></svg>
