<?xml version="1.0" encoding="iso-8859-1"?>
<!-- Generator: Adobe Illustrator 19.0.0, SVG Export Plug-In . SVG Version: 6.00 Build 0)  -->
<svg xmlns="http://www.w3.org/2000/svg" xmlns:xlink="http://www.w3.org/1999/xlink" version="1.1" id="Layer_1" x="0px" y="0px" viewBox="0 0 512 512" style="enable-background:new 0 0 512 512;" xml:space="preserve" width="512" height="512">
<g>
	<ellipse style="fill:#407FFF;" cx="256" cy="256" rx="248.459" ry="248.5"/>
	<path style="fill:#406AEF;" d="M406.225,58.071c31.721,41.729,50.562,93.785,50.562,150.25c0,137.243-111.239,248.5-248.46,248.5   c-56.455,0-108.503-18.845-150.225-50.571C103.483,465.948,175.235,504.5,256,504.5c137.22,0,248.459-111.257,248.459-248.5   C504.459,175.222,465.913,103.458,406.225,58.071z"/>
	<g id="_x32_WWlr9.tif_1_">
		<g>
			<path style="fill:#E3FAFF;" d="M141.105,370.722l16.463-16.466c47.024,41.536,99.635,52.595,157.25,26.721     c36.186-16.25,59.786-44.747,73.442-82.92c0.851-2.379-0.923-4.889-3.449-4.883c-12.66,0.03-24.599-0.072-36.502,0.524     c-2.369,0.119-5.249,3.602-6.714,6.197c-24.773,43.877-74.673,63.083-119.93,44.99c-11.788-4.713-22.326-12.554-34.882-19.791     l16.764-16.767c2.059-2.059,0.601-5.58-2.311-5.581c-20.461-0.006-40.671-0.011-61.421-0.017     c-2.53-0.001-4.588,2.048-4.586,4.578c0.013,17.124-0.016,47.288,0.296,61.184C135.591,371.367,139.072,372.756,141.105,370.722z     "/>
			<g>
				<path style="fill:#CCF4FF;" d="M384.812,293.175c-7.419,0.017-14.587-0.007-21.649,0.087c2.092,0.45,3.426,2.672,2.666,4.796      c-13.657,38.172-37.257,66.669-73.442,82.92c-16.871,7.576-33.309,11.962-49.307,13.367c22.951,2.07,46.878-2.202,71.738-13.367      c36.186-16.25,59.786-44.747,73.442-82.92C389.112,295.679,387.338,293.169,384.812,293.175z"/>
			</g>
			<path style="fill:#E3FAFF;" d="M323.362,188.429l-14.926,14.928c-1.905,1.905-0.56,5.162,2.133,5.167     c19.988,0.036,40.052,0.071,59.614,0.106c2.533,0.005,4.58-2.045,4.577-4.579c-0.025-18.875-0.052-38.933-0.079-59.223     c-0.004-2.694-3.261-4.041-5.166-2.136l-15.154,15.156c-44.261-39.672-93.859-51.3-149.281-30.684     c-37.867,14.086-69.006,47.972-81.382,86.455c-0.752,2.337,1.018,4.723,3.473,4.73c12.39,0.034,24.592,0.175,36.771-0.297     c2.129-0.083,4.721-3.426,6.081-5.835c23.077-40.871,67.54-60.477,111.055-48.595     C296.916,167.946,310.797,175.84,323.362,188.429z"/>
			<path style="fill:#CCF4FF;" d="M374.681,144.828c-0.004-2.694-3.261-4.041-5.166-2.136l-15.154,15.156     c-5.018-4.498-10.109-8.614-15.266-12.384c0-0.001,0-0.002,0-0.003c-0.036-0.027-0.073-0.052-0.11-0.079     c-0.07-0.051-0.139-0.105-0.208-0.156c0,0.002,0,0.004,0,0.007c-30.626-22.296-63.694-31.674-99.356-26.84     c19.743,2.791,48.705,18.062,72.728,34.568c16.721,11.489,26.679,30.504,26.706,50.794c0,0.099,0,0.197,0,0.296     c0.003,2.316-1.713,4.208-3.942,4.516c11.852,0.021,23.654,0.042,35.272,0.063c2.531,0.005,4.576-2.042,4.573-4.573     C374.735,185.18,374.708,165.12,374.681,144.828z"/>
		</g>
	</g>
</g>
<g>
	<path d="M436.991,74.981C388.646,26.629,324.369,0,256,0C192.017,0,130.768,23.736,83.534,66.835   c-3.06,2.792-3.276,7.536-0.484,10.595s7.535,3.278,10.596,0.485C138.107,37.344,195.767,15,256,15   c64.362,0,124.872,25.068,170.384,70.587c45.511,45.519,70.575,106.04,70.575,170.413s-25.064,124.894-70.575,170.413   C380.872,471.932,320.362,497,256,497s-124.872-25.068-170.384-70.587C40.105,380.894,15.041,320.374,15.041,256   c0-54.848,17.946-106.52,51.897-149.43c2.57-3.249,2.021-7.965-1.229-10.535c-3.247-2.571-7.965-2.021-10.535,1.228   C19.106,142.85,0.041,197.74,0.041,256c0,68.38,26.624,132.667,74.968,181.019C123.354,485.371,187.631,512,256,512   s132.646-26.629,180.991-74.981C485.335,388.667,511.959,324.38,511.959,256S485.335,123.333,436.991,74.981z"/>
	<path d="M311.746,374.136c-3.779,1.697-5.467,6.136-3.77,9.914c1.697,3.779,6.139,5.463,9.914,3.77   c36.542-16.41,62.594-45.76,77.433-87.236c1.221-3.414,0.699-7.222-1.395-10.187c-2.089-2.958-5.492-4.721-9.109-4.721   c-0.008,0-0.017,0-0.025,0l-5.937,0.007c-10.653,0.008-20.715,0.015-30.922,0.526c-6.899,0.344-11.596,7.742-12.871,10   c-11.159,19.765-28.349,34.825-48.404,42.406c-20.045,7.578-42.139,7.332-62.211-0.692c-7.359-2.943-14.495-7.397-22.05-12.113   c-1.162-0.726-2.337-1.459-3.527-2.197l9.979-9.981c3.09-3.09,4.006-7.696,2.334-11.734s-5.576-6.648-9.947-6.649l-61.421-0.017   c0,0-0.001,0-0.002,0c-3.224,0-6.256,1.253-8.538,3.53c-2.29,2.284-3.55,5.322-3.547,8.554l0.004,6.93   c0.008,17.795,0.019,42.166,0.294,54.416c0.097,4.315,2.747,8.141,6.753,9.748c4.01,1.609,8.573,0.674,11.628-2.382l11.557-11.558   c30.442,25.222,62.698,37.903,96.295,37.901c10.168,0,20.467-1.163,30.865-3.492c4.042-0.905,6.585-4.916,5.68-8.958   c-0.904-4.042-4.917-6.584-8.957-5.68c-41.825,9.366-81.966-2.614-119.315-35.604c-2.969-2.623-7.466-2.484-10.269,0.318   l-9.389,9.39c-0.128-12.866-0.136-30.435-0.142-44.106l-0.002-4.006l48.294,0.013l-9.547,9.548   c-1.649,1.649-2.438,3.972-2.132,6.285s1.67,4.352,3.69,5.516c3.941,2.271,7.742,4.645,11.418,6.939   c8.138,5.081,15.824,9.879,24.425,13.317c23.563,9.42,49.518,9.704,73.083,0.796c23.335-8.82,43.28-26.244,56.163-49.063   c0.585-1.036,1.326-1.941,1.832-2.454c9.418-0.432,18.897-0.439,28.909-0.446l0.403,0   C365.495,335.878,343.363,359.938,311.746,374.136z"/>
	<path d="M375.678,135.105c-3.948-1.632-8.447-0.736-11.467,2.285l-10.214,10.215c-45.954-38.544-96.898-47.792-151.531-27.47   c-39.643,14.747-72.561,49.688-85.907,91.188c-1.08,3.356-0.484,7.066,1.592,9.924c2.087,2.872,5.451,4.592,9.001,4.602l5.527,0.02   c3.18,0.013,6.391,0.026,9.621,0.026c7.277,0,14.646-0.066,21.933-0.349c6.119-0.237,10.347-6.143,12.322-9.642   c15.792-27.968,42.034-45.435,71.999-47.921c4.128-0.342,7.196-3.966,6.854-8.094c-0.343-4.128-3.968-7.192-8.095-6.854   c-34.48,2.861-65.815,23.607-83.821,55.495c-0.496,0.878-1.042,1.609-1.455,2.087c-9.651,0.332-19.212,0.293-29.297,0.252l-0.153,0   c12.838-34.538,41.821-64.292,75.109-76.675c25.918-9.642,51.034-11.985,74.649-6.96c23.164,4.929,45.71,17.107,67.01,36.199   c2.965,2.659,7.493,2.535,10.31-0.282l7.53-7.531l0.061,45.505l-45.9-0.082l7.31-7.311c2.927-2.927,2.929-7.671,0.005-10.601   c-13.191-13.216-28.112-21.964-45.615-26.744c-3.994-1.087-8.119,1.263-9.211,5.26c-1.091,3.996,1.264,8.12,5.26,9.211   c12.545,3.425,23.554,9.263,33.456,17.767l-9.428,9.43c-3.019,3.019-3.915,7.519-2.285,11.463c1.63,3.944,5.441,6.498,9.709,6.506   l59.615,0.106c0.007,0,0.014,0,0.021,0c3.224,0,6.253-1.254,8.532-3.532c2.284-2.284,3.54-5.324,3.535-8.556l-0.079-59.222   C382.176,140.55,379.623,136.737,375.678,135.105z"/>
</g>















</svg>
